<svg width="728" height="273" viewBox="0 0 728 273" fill="none" xmlns="http://www.w3.org/2000/svg">
<path d="M180.136 3.28799V168.51H225.562V209.112H180.136V267H133.102V209.112H0.844001V173.334L134.308 3.28799H180.136ZM57.124 173.334H135.514V73.638L57.124 173.334ZM362.112 0.875976C378.192 0.875976 392.798 3.68998 405.93 9.31799C419.33 14.678 430.72 22.986 440.1 34.242C460.468 58.094 470.652 92.264 470.652 136.752C470.652 181.24 460.468 215.41 440.1 239.262C421.34 261.506 395.478 272.628 362.514 272.628C329.282 272.628 303.152 261.506 284.124 239.262C264.024 215.946 253.974 181.776 253.974 136.752C253.974 91.728 264.024 57.558 284.124 34.242C303.152 11.998 329.148 0.875976 362.112 0.875976ZM421.608 136.752C421.608 106.736 416.382 83.822 405.93 68.01C395.746 51.93 381.14 43.89 362.112 43.89C343.352 43.89 328.746 51.93 318.294 68.01C308.11 83.822 303.018 106.736 303.018 136.752C303.018 166.768 308.11 189.682 318.294 205.494C328.746 221.038 343.352 228.81 362.112 228.81C381.14 228.81 395.746 221.038 405.93 205.494C416.382 189.682 421.608 166.768 421.608 136.752ZM681.607 3.28799V168.51H727.033V209.112H681.607V267H634.573V209.112H502.315V173.334L635.779 3.28799H681.607ZM558.595 173.334H636.985V73.638L558.595 173.334Z" fill="black" fill-opacity="0.5"/>
</svg>
