<svg width="169" height="170" viewBox="0 0 169 170" fill="none" xmlns="http://www.w3.org/2000/svg">
<g id="Frame" clip-path="url(#clip0_82_4489)">
<g id="Group">
<path id="Vector" d="M140.79 141.329C171.884 110.218 171.884 59.7786 140.79 28.6682C109.696 -2.44221 59.2833 -2.44222 28.1894 28.6682C-2.9045 59.7786 -2.9045 110.218 28.1894 141.329C59.2833 172.439 109.696 172.439 140.79 141.329Z" fill="#1D1E1D"/>
<path id="Vector_2" d="M169 76.1425C164.571 33.358 128.429 0 84.494 0C40.559 0 4.42941 33.358 0 76.1425H169Z" fill="url(#paint0_linear_82_4489)"/>
<path id="Vector_3" d="M0 93.8457C4.42941 136.63 40.571 169.988 84.494 169.988C128.417 169.988 164.571 136.63 168.988 93.8457H0Z" fill="#E7E7E9"/>
<g id="Group_2">
<path id="Vector_4" d="M84.4938 111.777C99.2774 111.777 111.262 99.786 111.262 84.9946C111.262 70.2032 99.2774 58.2124 84.4938 58.2124C69.7103 58.2124 57.7258 70.2032 57.7258 84.9946C57.7258 99.786 69.7103 111.777 84.4938 111.777Z" fill="#1D1E1D"/>
<path id="Vector_5" d="M84.4938 105.92C96.0443 105.92 105.408 96.5511 105.408 84.9944C105.408 73.4378 96.0443 64.0693 84.4938 64.0693C72.9434 64.0693 63.5798 73.4378 63.5798 84.9944C63.5798 96.5511 72.9434 105.92 84.4938 105.92Z" fill="#F7F7F7"/>
<path id="Vector_6" d="M84.4937 99.1151C92.2887 99.1151 98.6079 92.7926 98.6079 84.9933C98.6079 77.1941 92.2887 70.8716 84.4937 70.8716C76.6986 70.8716 70.3794 77.1941 70.3794 84.9933C70.3794 92.7926 76.6986 99.1151 84.4937 99.1151Z" fill="#B8B5B5"/>
<path id="Vector_7" d="M84.4939 98.0739C91.7138 98.0739 97.5667 92.218 97.5667 84.9942C97.5667 77.7705 91.7138 71.9146 84.4939 71.9146C77.274 71.9146 71.4211 77.7705 71.4211 84.9942C71.4211 92.218 77.274 98.0739 84.4939 98.0739Z" fill="#F7F7F7"/>
</g>
</g>
</g>
<defs>
<linearGradient id="paint0_linear_82_4489" x1="183.335" y1="63.7349" x2="31.001" y2="66.9307" gradientUnits="userSpaceOnUse">
<stop stop-color="#B57E10"/>
<stop offset="0.240861" stop-color="#B57E10"/>
<stop offset="0.404291" stop-color="#F9DF7B"/>
<stop offset="0.59375" stop-color="#FFF3A6"/>
<stop offset="0.78125" stop-color="#F9DF7B"/>
<stop offset="1" stop-color="#B57E10"/>
</linearGradient>
<clipPath id="clip0_82_4489">
<rect width="169" height="170" fill="none"/>
</clipPath>
</defs>
</svg>
